<svg xmlns="http://www.w3.org/2000/svg" xmlns:xlink="http://www.w3.org/1999/xlink" width="621.092" height="459.97" viewBox="0 0 621.092 459.97"><defs><style>.a{fill:url(#a);}.b{fill:url(#b);}.c{fill:url(#c);}.d{fill:#020230;opacity:0.6;}.e{fill:url(#d);}.f{fill:url(#e);}.g{fill:url(#f);}.h{fill:url(#g);}.ab,.i{fill:#fff;}.j,.n{opacity:0.4;}.k,.n,.o{fill:#06033e;}.l{fill:url(#h);}.m{fill:url(#i);}.ab,.o,.q{opacity:0.5;}.p{fill:url(#j);}.r{fill:#e8975b;}.s{fill:#f8359e;}.t{fill:url(#k);}.u{fill:url(#l);}.v{fill:url(#m);}.w{fill:url(#n);}.x{fill:url(#p);}.y{fill:url(#q);}.z{fill:#0c0a78;}.aa{fill:url(#r);}</style><linearGradient id="a" x1="-0.001" y1="0.499" x2="0.998" y2="0.499" gradientUnits="objectBoundingBox"><stop offset="0" stop-color="#e39a65"/><stop offset="1" stop-color="#e95f8d"/></linearGradient><linearGradient id="b" x1="-0.001" y1="0.5" x2="1" y2="0.5" xlink:href="#a"/><linearGradient id="c" x1="0" y1="0.5" x2="1" y2="0.5" xlink:href="#a"/><linearGradient id="d" x1="0" y1="0.5" x2="1" y2="0.5" xlink:href="#a"/><radialGradient id="e" cx="0.193" cy="-0.024" r="1.117" gradientTransform="translate(-0.04) scale(1.08 1)" gradientUnits="objectBoundingBox"><stop offset="0" stop-color="#e39a65"/><stop offset="0.47" stop-color="#a92ffb"/><stop offset="0.59" stop-color="#891cfb"/><stop offset="0.74" stop-color="#6507fa"/><stop offset="0.8" stop-color="#0d0c6f"/></radialGradient><radialGradient id="f" cx="0.01" cy="0.384" r="1.712" gradientTransform="translate(0.213) scale(0.574 1)" gradientUnits="objectBoundingBox"><stop offset="0" stop-color="#e39a65"/><stop offset="0.47" stop-color="#a92ffb"/><stop offset="0.57" stop-color="#891cfb"/><stop offset="0.68" stop-color="#6507fa"/><stop offset="0.74" stop-color="#0d0c6f"/></radialGradient><radialGradient id="g" cx="0.101" cy="0.073" r="1.525" gradientTransform="translate(0.211) scale(0.577 1)" gradientUnits="objectBoundingBox"><stop offset="0" stop-color="#e39a65"/><stop offset="0.47" stop-color="#a92ffb"/><stop offset="0.59" stop-color="#891cfb"/><stop offset="0.73" stop-color="#6507fa"/><stop offset="1" stop-color="#3919bb"/></radialGradient><radialGradient id="h" cx="-0.116" cy="0.206" r="1.121" gradientTransform="translate(-0.038) scale(1.076 1)" xlink:href="#g"/><linearGradient id="i" y1="0.5" x2="1" y2="0.5" gradientUnits="objectBoundingBox"><stop offset="0" stop-color="#3919bb"/><stop offset="1" stop-color="#6507fa"/></linearGradient><radialGradient id="j" cx="-1.084" cy="-0.321" r="2.659" gradientTransform="translate(-0.038) scale(1.077 1)" xlink:href="#g"/><linearGradient id="k" x1="0" y1="0.5" x2="1.001" y2="0.5" xlink:href="#a"/><radialGradient id="l" cx="-0.082" cy="0.241" r="2.243" gradientTransform="translate(-0.159) scale(1.318 1)" gradientUnits="objectBoundingBox"><stop offset="0" stop-color="#e39a65"/><stop offset="0.15" stop-color="#a92ffb"/><stop offset="0.41" stop-color="#3919bb"/><stop offset="0.93" stop-color="#3919bb"/></radialGradient><linearGradient id="m" y1="0.5" x2="1" y2="0.5" gradientUnits="objectBoundingBox"><stop offset="0" stop-color="#e39a65"/><stop offset="0.25" stop-color="#a92ffb"/><stop offset="0.56" stop-color="#3919bb"/></linearGradient><linearGradient id="n" y1="0.5" x2="1" y2="0.5" gradientUnits="objectBoundingBox"><stop offset="0" stop-color="#4f1fec"/><stop offset="1" stop-color="#a92ffb"/></linearGradient><linearGradient id="p" x1="0.001" y1="0.498" x2="1.26" y2="0.498" gradientUnits="objectBoundingBox"><stop offset="0" stop-color="#131060"/><stop offset="0.19" stop-color="#141062"/><stop offset="0.28" stop-color="#19106a"/><stop offset="0.36" stop-color="#221078"/><stop offset="0.42" stop-color="#2e0f8b"/><stop offset="0.48" stop-color="#3e0fa3"/><stop offset="0.54" stop-color="#510ec2"/><stop offset="0.58" stop-color="#680de5"/><stop offset="0.61" stop-color="#740df8"/><stop offset="0.62" stop-color="#7a14f0"/><stop offset="0.68" stop-color="#9b3cc3"/><stop offset="0.75" stop-color="#b75d9d"/><stop offset="0.81" stop-color="#cc7680"/><stop offset="0.88" stop-color="#dc886c"/><stop offset="0.94" stop-color="#e5935f"/><stop offset="1" stop-color="#e8975b"/></linearGradient><radialGradient id="q" cx="-0.135" cy="0.092" r="3.209" gradientTransform="translate(0.211) scale(0.577 1)" gradientUnits="objectBoundingBox"><stop offset="0" stop-color="#e39a65"/><stop offset="0.25" stop-color="#a92ffb"/><stop offset="0.74" stop-color="#3919bb"/></radialGradient><linearGradient id="r" x1="-0.083" y1="0.5" x2="1.227" y2="0.5" xlink:href="#p"/></defs><g transform="translate(-433.958 -19.92)"><g transform="translate(433.958 19.92)"><g transform="translate(0)"><path class="a" d="M850.378,556.7a9.913,9.913,0,0,1-4.928-1.317l-16.569-9.659a3.073,3.073,0,0,1,0-5.325l16.626-9.6a9.913,9.913,0,0,1,9.913,0l16.626,9.6a3.073,3.073,0,0,1,0,5.325l-16.739,9.559A9.913,9.913,0,0,1,850.378,556.7Zm0-24.529a7.266,7.266,0,0,0-3.611.963l-16.626,9.6a.453.453,0,0,0,0,.765l16.626,9.6h0a7.293,7.293,0,0,0,7.223,0l16.626-9.6a.453.453,0,0,0,0-.765l-16.626-9.6a7.293,7.293,0,0,0-3.611-1.02Z" transform="translate(-252.493 -161.585)"/><path class="b" d="M775.062,470.516a16.087,16.087,0,0,1-7.945-2.138L738.51,451.851a4.334,4.334,0,0,1,0-7.52l28.607-16.513a16.017,16.017,0,0,1,16.017,0L811.684,444.3a4.348,4.348,0,0,1,0,7.52l-28.607,16.555a16.145,16.145,0,0,1-8.016,2.138Zm-6.684-4.433a13.369,13.369,0,0,0,13.383,0l28.607-16.513a1.664,1.664,0,0,0,0-2.9L781.76,430.14a13.439,13.439,0,0,0-13.383,0L739.77,446.653a1.685,1.685,0,0,0-.864,1.487,1.657,1.657,0,0,0,.864,1.416Z" transform="translate(-224.718 -129.907)"/><path class="c" d="M38.791,507.917a16,16,0,0,1-8.016-2.138L2.183,489.266a4.348,4.348,0,0,1,0-7.534l28.593-16.513a16.018,16.018,0,0,1,16.017,0L75.4,481.732a4.348,4.348,0,0,1,0,7.534L46.736,505.779A15.946,15.946,0,0,1,38.791,507.917Zm0-42.2a13.412,13.412,0,0,0-6.7,1.784L3.486,484.04a1.714,1.714,0,0,0,0,2.974l28.593,16.513h0a13.468,13.468,0,0,0,13.4,0l28.593-16.513a1.714,1.714,0,0,0,0-2.974L45.462,467.527A13.355,13.355,0,0,0,38.791,465.715Z" transform="translate(-0.006 -141.321)"/><path class="d" d="M382.017,542.47,177.462,424.388c-2.974-1.728-2.606-4.73.836-6.727L309.579,341.88c3.441-2,8.653-2.209,11.627-.482L525.747,459.481c2.988,1.728,2.62,4.73-.821,6.713L393.644,541.989C390.2,543.985,384.935,544.269,382.017,542.47Z" transform="translate(-53.549 -103.832)"/><path class="e" d="M372.812,555.91a13,13,0,0,1-6.429-1.515h0L132.937,419.615a5.212,5.212,0,0,1-2.96-4.461c0-2.053,1.416-4.05,3.909-5.481l159.138-93.228c4.362-2.521,10.777-2.762,14.6-.552L541,450.672a5.183,5.183,0,0,1,2.96,4.461c0,2.054-1.416,4.05-3.909,5.481L380.97,553.842a16.641,16.641,0,0,1-8.157,2.068Zm-71.6-238.884a14.162,14.162,0,0,0-6.868,1.7L135.217,411.953c-1.629.935-2.592,2.138-2.592,3.2a2.832,2.832,0,0,0,1.629,2.181L367.7,552.114h0c2.988,1.728,8.5,1.416,11.953-.552l159.138-93.228c1.629-.935,2.592-2.138,2.592-3.2a2.833,2.833,0,0,0-1.629-2.181L306.308,318.173A10.48,10.48,0,0,0,301.21,317.026Z" transform="translate(-39.67 -95.944)"/><path class="f" d="M644.477,174.939,440.743,57.395a5.254,5.254,0,0,0-4.149-.609h0L432.827,58.1l1.331.312a6.515,6.515,0,0,0-1.246,2.323L386.8,210.273a9.035,9.035,0,0,0,3.739,10.069L594.273,337.972a6.074,6.074,0,0,0,1.5.609l-.51,1.1,3.611-1.26h0a5.665,5.665,0,0,0,3.286-3.81L648.23,185.022A9.007,9.007,0,0,0,644.477,174.939Z" transform="translate(-117.94 -17.274)"/><path class="g" d="M522.619,418.128l.071.085L321.463,302.085c-2.96-1.714-8.143-1.5-11.556.467L179.886,377.611l-4.334-1.657,1.218,6.09h0a3.668,3.668,0,0,0,1.954,2.436l203.1,117.261c2.96,1.714,8.143,1.5,11.556-.481L523.667,426a5.169,5.169,0,0,0,2.762-3.215h0l1.246-5.92Z" transform="translate(-53.579 -91.837)"/><path class="h" d="M382.017,493.341,177.462,375.259c-2.974-1.728-2.606-4.73.836-6.727l131.281-75.752c3.441-2,8.653-2.209,11.627-.482L525.747,410.324c2.988,1.728,2.62,4.73-.821,6.713L393.644,492.831C390.2,494.856,384.935,495.069,382.017,493.341Z" transform="translate(-53.549 -88.847)"/><path class="i" d="M524.937,450.794,393.669,526.589c-3.441,1.983-8.653,2.2-11.627.482l-204.555-118.1a3.866,3.866,0,0,1-1.855-2.124,3.2,3.2,0,0,0,1.855,3.725L382.042,528.656c2.974,1.728,8.186,1.515,11.627-.482L524.937,452.38c2.28-1.3,3.186-3.059,2.7-4.589a5.424,5.424,0,0,1-2.705,3Z" transform="translate(-53.574 -124.163)"/><g class="j" transform="translate(214.206 229.757)"><path class="k" d="M315.579,380.112l-6.911-3.98c-.552-.326-.482-.878.156-1.246l8.157-4.716a2.365,2.365,0,0,1,2.153-.085l6.911,3.994c.552.312.482.878-.156,1.246l-8.157,4.7a2.365,2.365,0,0,1-2.153.085Z" transform="translate(-308.296 -342.634)"/><path class="k" d="M330.927,388.979,324.016,385c-.552-.326-.482-.878.156-1.26l8.157-4.7a2.365,2.365,0,0,1,2.153-.085l6.911,3.979c.552.326.481.878-.156,1.26l-8.157,4.716a2.365,2.365,0,0,1-2.153.071Z" transform="translate(-312.979 -345.339)"/><path class="k" d="M346.274,397.845l-6.911-3.994c-.552-.312-.482-.878.156-1.246l8.157-4.7a2.365,2.365,0,0,1,2.153-.085l6.911,3.979c.552.326.482.878-.156,1.246l-8.129,4.716A2.365,2.365,0,0,1,346.274,397.845Z" transform="translate(-317.663 -348.045)"/><path class="k" d="M367.494,390.864l-6.9-3.98c-.566-.312-.5-.878.156-1.246l6.84-3.951a2.365,2.365,0,0,1,2.153-.085l6.911,3.98c.552.326.481.892-.156,1.26l-6.84,3.951A2.436,2.436,0,0,1,367.494,390.864Z" transform="translate(-324.14 -346.148)"/><path class="k" d="M382.842,399.724l-6.9-3.994c-.566-.312-.5-.878.156-1.246l6.84-3.951a2.365,2.365,0,0,1,2.153-.085l6.911,3.98c.552.326.482.878-.156,1.246l-6.84,3.951A2.45,2.45,0,0,1,382.842,399.724Z" transform="translate(-328.824 -348.848)"/><path class="k" d="M398.19,408.563l-6.9-3.979c-.566-.326-.5-.878.156-1.246l6.84-3.98a2.422,2.422,0,0,1,2.153-.1l6.911,3.994c.552.326.482.878-.156,1.246l-6.84,3.951a2.393,2.393,0,0,1-2.167.113Z" transform="translate(-333.508 -351.54)"/><path class="k" d="M413.537,417.414l-6.9-4.036c-.566-.326-.5-.878.156-1.26l6.84-3.937a2.365,2.365,0,0,1,2.153-.1l6.911,3.994c.552.312.481.878-.156,1.246l-6.826,4.008A2.394,2.394,0,0,1,413.537,417.414Z" transform="translate(-338.192 -354.231)"/><path class="k" d="M428.906,426.3l-6.9-3.994c-.566-.312-.5-.878.156-1.246l6.84-3.951a2.393,2.393,0,0,1,2.167-.085l6.9,3.98c.552.326.482.892-.156,1.26l-6.84,3.951A2.394,2.394,0,0,1,428.906,426.3Z" transform="translate(-342.882 -356.959)"/><path class="k" d="M444.235,435.168l-6.9-3.994c-.552-.312-.5-.878.156-1.246l6.84-3.951a2.393,2.393,0,0,1,2.167-.085l6.9,3.979c.552.326.482.878-.156,1.246l-6.84,3.951a2.45,2.45,0,0,1-2.167.1Z" transform="translate(-347.562 -359.665)"/><path class="k" d="M459.583,444.02l-6.9-3.979c-.552-.326-.5-.878.156-1.246l6.84-3.951a2.45,2.45,0,0,1,2.167-.1l6.9,3.994c.552.326.482.878-.156,1.246l-6.84,3.951A2.393,2.393,0,0,1,459.583,444.02Z" transform="translate(-352.246 -362.37)"/><path class="k" d="M474.931,452.883l-6.9-3.98c-.552-.326-.5-.878.156-1.26l6.84-3.937a2.393,2.393,0,0,1,2.167-.1l6.9,3.994c.552.312.482.878-.156,1.246L477.1,452.8a2.394,2.394,0,0,1-2.167.085Z" transform="translate(-356.93 -365.073)"/><path class="k" d="M490.281,461.747l-6.9-3.994c-.552-.312-.482-.878.156-1.246l6.84-3.951a2.393,2.393,0,0,1,2.167-.085l6.9,3.98c.552.326.482.892-.156,1.26l-6.84,3.951A2.393,2.393,0,0,1,490.281,461.747Z" transform="translate(-361.616 -367.776)"/><path class="k" d="M505.629,470.613l-6.9-3.994c-.552-.312-.482-.878.156-1.246l6.84-3.951a2.393,2.393,0,0,1,2.167-.085l6.9,3.979c.552.326.481.878-.156,1.246l-6.84,3.951a2.393,2.393,0,0,1-2.167.1Z" transform="translate(-366.299 -370.482)"/><path class="k" d="M390.178,386.659l-6.911-3.979c-.552-.326-.481-.892.156-1.26l6.84-3.951a2.393,2.393,0,0,1,2.167-.085l6.911,3.994c.552.312.482.878-.156,1.246l-6.854,3.951A2.365,2.365,0,0,1,390.178,386.659Z" transform="translate(-331.062 -344.86)"/><path class="k" d="M374.53,377.67l-6.9-3.994c-.552-.312-.481-.878.156-1.246l6.84-3.951a2.393,2.393,0,0,1,2.167-.085l6.9,3.98c.552.326.5.878-.156,1.26l-6.84,3.937a2.393,2.393,0,0,1-2.167.1Z" transform="translate(-326.291 -342.117)"/><path class="k" d="M355.434,366.639l-14.87-8.582c-.552-.326-.5-.892.156-1.26l6.84-3.951a2.393,2.393,0,0,1,2.167-.085l14.87,8.582c.552.326.482.878-.156,1.26l-6.84,3.951a2.45,2.45,0,0,1-2.167.085Z" transform="translate(-318.028 -337.346)"/><path class="k" d="M367.529,356.389l-12.066-6.968c-.552-.312-.5-.878.156-1.246l6.84-3.951a2.393,2.393,0,0,1,2.167-.085l12.066,6.968c.552.312.481.878-.156,1.246L369.7,356.3A2.393,2.393,0,0,1,367.529,356.389Z" transform="translate(-322.575 -334.715)"/><path class="k" d="M405.464,395.525l-6.911-3.994c-.552-.312-.482-.878.156-1.246l6.84-3.951a2.393,2.393,0,0,1,2.167-.085l6.911,3.979c.552.326.482.878-.156,1.26l-6.883,3.895a2.365,2.365,0,0,1-2.124.142Z" transform="translate(-335.727 -347.566)"/><path class="k" d="M420.751,404.391,413.84,400.4c-.552-.326-.482-.878.156-1.246l6.84-3.951a2.393,2.393,0,0,1,2.167-.085l6.911,3.98c.552.326.482.878-.156,1.246l-6.854,3.951A2.422,2.422,0,0,1,420.751,404.391Z" transform="translate(-340.392 -350.272)"/><path class="k" d="M436.16,413.255l-6.911-3.951c-.552-.326-.481-.878.156-1.246l6.84-3.951a2.45,2.45,0,0,1,2.167-.1L445.323,408c.552.312.481.878-.156,1.246l-6.84,3.951A2.393,2.393,0,0,1,436.16,413.255Z" transform="translate(-345.095 -352.99)"/><path class="k" d="M451.508,422.1l-6.911-3.98c-.552-.326-.481-.892.156-1.26l6.84-3.951a2.393,2.393,0,0,1,2.167-.085l6.911,3.994c.552.312.482.878-.156,1.246l-6.84,3.951A2.394,2.394,0,0,1,451.508,422.1Z" transform="translate(-349.778 -355.677)"/><path class="k" d="M466.856,430.97l-6.911-3.994c-.552-.312-.481-.878.156-1.246l6.84-3.951a2.393,2.393,0,0,1,2.167-.085l6.911,3.979c.552.326.481.878-.156,1.26l-6.84,3.951a2.45,2.45,0,0,1-2.167.085Z" transform="translate(-354.462 -358.383)"/><path class="k" d="M482.2,439.823l-6.911-4.022c-.552-.326-.481-.878.156-1.246l6.84-3.951a2.394,2.394,0,0,1,2.167-.085l6.911,3.98c.552.326.482.878-.156,1.246l-6.84,3.951a2.45,2.45,0,0,1-2.167.128Z" transform="translate(-359.146 -361.077)"/><path class="k" d="M497.551,448.687l-6.911-3.98c-.552-.326-.482-.878.156-1.246l6.84-3.951a2.45,2.45,0,0,1,2.167-.1l6.911,3.994c.552.326.482.878-.156,1.246l-6.84,3.951a2.393,2.393,0,0,1-2.167.085Z" transform="translate(-363.83 -363.794)"/><path class="k" d="M512.9,457.551l-6.911-3.98c-.552-.326-.481-.878.156-1.26l6.84-3.951a2.45,2.45,0,0,1,2.167-.085l6.911,3.994c.552.312.482.878-.156,1.246l-6.84,3.951A2.393,2.393,0,0,1,512.9,457.551Z" transform="translate(-368.514 -366.497)"/><path class="k" d="M528.247,466.414l-6.911-3.994c-.552-.312-.482-.878.156-1.246l6.84-3.951a2.393,2.393,0,0,1,2.167-.085l6.911,3.98c.552.326.482.892-.156,1.26l-6.84,3.951A2.45,2.45,0,0,1,528.247,466.414Z" transform="translate(-373.198 -369.2)"/><path class="k" d="M551.954,480.1l-15.068-8.7c-.552-.326-.5-.892.156-1.26l6.84-3.951a2.393,2.393,0,0,1,2.167-.085l15.068,8.7c.552.326.482.878-.156,1.26L554.106,480a2.365,2.365,0,0,1-2.153.1Z" transform="translate(-377.942 -371.937)"/><path class="k" d="M582.854,463.437,570.108,456.1c-.552-.326-.5-.878.156-1.246l6.84-3.951a2.45,2.45,0,0,1,2.167-.1l12.746,7.35c.552.326.482.878-.156,1.246l-6.854,3.951a2.365,2.365,0,0,1-2.153.085Z" transform="translate(-388.081 -367.271)"/><path class="k" d="M432.334,393.792l-6.9-3.994c-.552-.312-.482-.878.156-1.246l6.84-3.951a2.393,2.393,0,0,1,2.167-.085l6.9,3.98c.552.326.5.878-.156,1.246l-6.84,3.951a2.394,2.394,0,0,1-2.167.1Z" transform="translate(-343.931 -347.037)"/><path class="k" d="M416.656,384.718l-6.954-3.951c-.552-.326-.482-.878.156-1.26l6.84-3.937a2.407,2.407,0,0,1,2.167-.1l6.911,3.994c.552.312.482.878-.156,1.246l-6.854,3.951A2.365,2.365,0,0,1,416.656,384.718Z" transform="translate(-339.129 -344.279)"/><path class="k" d="M400.878,375.632l-6.911-3.994c-.552-.326-.481-.878.156-1.246l6.84-3.951a2.393,2.393,0,0,1,2.167-.085l6.911,3.979c.552.326.481.878-.156,1.246l-6.84,3.951a2.45,2.45,0,0,1-2.167.1Z" transform="translate(-334.327 -341.495)"/><path class="k" d="M385.145,366.541l-6.9-3.979c-.566-.326-.5-.892.156-1.26l6.84-3.951a2.365,2.365,0,0,1,2.153-.085l6.911,3.994c.552.312.481.878-.156,1.246l-6.84,3.951a2.393,2.393,0,0,1-2.167.085Z" transform="translate(-329.527 -338.721)"/><path class="k" d="M447.682,402.659l-6.9-3.994c-.552-.326-.481-.878.156-1.246l6.84-3.951a2.393,2.393,0,0,1,2.167-.085l6.9,3.98c.552.326.5.878-.156,1.246l-6.84,3.951a2.45,2.45,0,0,1-2.167.1Z" transform="translate(-348.615 -349.743)"/><path class="k" d="M463.03,411.51l-6.9-3.979c-.552-.326-.482-.878.156-1.246l6.84-3.951a2.45,2.45,0,0,1,2.167-.1l6.9,3.994c.552.312.5.878-.156,1.246l-6.84,3.951A2.394,2.394,0,0,1,463.03,411.51Z" transform="translate(-353.299 -352.448)"/><path class="k" d="M478.392,420.371l-6.911-3.98c-.552-.326-.481-.892.156-1.26l6.84-3.951a2.393,2.393,0,0,1,2.167-.085l6.9,3.994c.566.312.5.878-.156,1.246l-6.84,3.951A2.365,2.365,0,0,1,478.392,420.371Z" transform="translate(-357.983 -355.149)"/><path class="k" d="M493.74,429.237l-6.911-3.994c-.552-.312-.482-.878.156-1.246l6.84-3.951a2.393,2.393,0,0,1,2.167-.085l6.9,3.98c.566.326.5.878-.156,1.26l-6.84,3.937a2.365,2.365,0,0,1-2.153.1Z" transform="translate(-362.667 -357.854)"/><path class="k" d="M509.088,438.124l-6.911-3.994c-.552-.326-.482-.878.156-1.246l6.84-3.951a2.393,2.393,0,0,1,2.167-.085l6.9,3.98c.566.326.5.878-.156,1.246l-6.84,3.951A2.422,2.422,0,0,1,509.088,438.124Z" transform="translate(-367.351 -360.566)"/><path class="k" d="M524.442,446.955l-6.9-3.979c-.552-.326-.482-.878.156-1.246l6.84-3.951a2.45,2.45,0,0,1,2.167-.1l6.9,3.994c.566.312.5.878-.156,1.246l-6.84,3.951A2.366,2.366,0,0,1,524.442,446.955Z" transform="translate(-372.041 -363.266)"/><path class="k" d="M539.783,455.815l-6.911-3.979c-.552-.326-.482-.892.156-1.26l6.84-3.951a2.393,2.393,0,0,1,2.167-.085l6.9,3.994c.566.312.5.878-.142,1.246l-6.854,3.951a2.365,2.365,0,0,1-2.153.085Z" transform="translate(-376.718 -365.966)"/><path class="k" d="M555.131,464.621l-6.911-3.994c-.552-.312-.482-.878.156-1.246l6.84-3.951a2.394,2.394,0,0,1,2.167-.085l6.911,3.98c.552.326.482.878-.156,1.26l-6.854,4.036a2.407,2.407,0,0,1-2.153,0Z" transform="translate(-381.402 -368.653)"/><path class="k" d="M570.479,473.548l-6.911-3.994c-.552-.326-.482-.878.156-1.246l6.84-3.951a2.393,2.393,0,0,1,2.167-.085l6.911,3.98c.552.326.481.878-.156,1.246l-6.826,3.951A2.422,2.422,0,0,1,570.479,473.548Z" transform="translate(-386.086 -371.377)"/><path class="k" d="M424.257,371.867l-6.911-3.979c-.552-.326-.482-.878.156-1.246l6.84-3.951a2.45,2.45,0,0,1,2.167-.1l6.911,3.994c.552.326.481.878-.156,1.246l-6.84,3.951a2.393,2.393,0,0,1-2.167.085Z" transform="translate(-341.462 -340.35)"/><path class="k" d="M408.991,363.056l-6.911-3.994c-.552-.312-.482-.878.156-1.246l6.84-3.951a2.393,2.393,0,0,1,2.167-.085l6.9,3.98c.566.326.5.878-.142,1.26l-6.854,3.937a2.365,2.365,0,0,1-2.153.1Z" transform="translate(-336.803 -337.657)"/><path class="k" d="M393.708,354.215l-6.9-4.022c-.552-.326-.5-.878.156-1.26l6.84-3.937a2.393,2.393,0,0,1,2.167-.1l6.9,3.994c.552.312.482.878-.156,1.246l-6.84,3.951a2.394,2.394,0,0,1-2.167.127Z" transform="translate(-332.142 -334.948)"/><path class="k" d="M378.438,345.425l-6.911-3.994c-.552-.326-.482-.878.156-1.246l6.854-3.951a2.365,2.365,0,0,1,2.153-.085l6.911,3.979c.552.326.482.878-.156,1.246l-6.84,3.951a2.45,2.45,0,0,1-2.167.1Z" transform="translate(-327.479 -332.277)"/><path class="k" d="M394.254,337.519l-6.911-3.994c-.552-.312-.481-.878.156-1.246l2.266-1.3a2.365,2.365,0,0,1,2.153-.085l6.911,3.98c.552.326.482.878-.156,1.246l-2.266,1.3a2.365,2.365,0,0,1-2.153.1Z" transform="translate(-332.306 -330.672)"/><path class="k" d="M414.072,349.014l-6.9-3.98c-.552-.326-.481-.878.156-1.246l2.252-1.317a2.393,2.393,0,0,1,2.167-.085l6.911,3.994c.552.312.481.878-.156,1.246l-2.266,1.3a2.393,2.393,0,0,1-2.167.085Z" transform="translate(-338.358 -334.18)"/><path class="k" d="M429.291,357.758l-6.911-3.979c-.552-.326-.482-.892.156-1.26l2.266-1.3a2.365,2.365,0,0,1,2.153-.085l6.911,3.979c.552.326.482.878-.156,1.26l-2.266,1.3A2.365,2.365,0,0,1,429.291,357.758Z" transform="translate(-342.998 -336.849)"/><path class="k" d="M444.5,366.583l-6.911-3.994c-.552-.312-.482-.878.156-1.246l2.266-1.3a2.365,2.365,0,0,1,2.153-.085l6.911,3.98c.552.326.482.878-.156,1.246l-2.266,1.317A2.365,2.365,0,0,1,444.5,366.583Z" transform="translate(-347.639 -339.542)"/><path class="k" d="M459.7,375.368l-6.911-3.994c-.552-.312-.482-.878.156-1.246l2.266-1.3a2.45,2.45,0,0,1,2.167-.1l6.9,3.994c.552.326.5.878-.156,1.246l-2.252,1.3A2.45,2.45,0,0,1,459.7,375.368Z" transform="translate(-352.279 -342.222)"/><path class="k" d="M544.614,424.387l-6.911-3.994c-.552-.312-.482-.878.156-1.246l2.266-1.3a2.422,2.422,0,0,1,2.153-.1l6.911,3.994c.552.326.482.878-.156,1.246l-2.266,1.3A2.365,2.365,0,0,1,544.614,424.387Z" transform="translate(-378.193 -357.182)"/><path class="k" d="M559.819,433.172l-6.911-3.994c-.552-.326-.481-.878.156-1.246l2.266-1.3a2.45,2.45,0,0,1,2.167-.1l6.9,3.994c.552.312.482.878-.156,1.246l-2.266,1.3A2.421,2.421,0,0,1,559.819,433.172Z" transform="translate(-382.833 -359.863)"/><path class="k" d="M575.024,441.937l-6.911-3.98c-.552-.326-.482-.878.156-1.246l2.266-1.317a2.393,2.393,0,0,1,2.167-.085l6.9,3.994c.552.312.5.878-.156,1.246l-2.252,1.3a2.393,2.393,0,0,1-2.167.085Z" transform="translate(-387.473 -362.538)"/><path class="k" d="M590.229,450.727l-6.911-3.979c-.552-.326-.482-.878.156-1.26l2.294-1.289a2.393,2.393,0,0,1,2.167-.085l6.9,3.98c.566.326.5.878-.156,1.26l-2.252,1.3a2.393,2.393,0,0,1-2.2.071Z" transform="translate(-392.114 -365.225)"/><path class="k" d="M439.6,380.712l-6.911-4.022c-.552-.326-.482-.878.156-1.26l6.84-3.937a2.408,2.408,0,0,1,2.167-.1l6.911,3.994c.552.312.481.878-.156,1.246l-6.84,3.951A2.393,2.393,0,0,1,439.6,380.712Z" transform="translate(-346.146 -343.035)"/><path class="k" d="M454.952,389.594l-6.911-3.994c-.552-.312-.482-.878.156-1.246l6.84-3.951a2.394,2.394,0,0,1,2.167-.085l6.911,3.98c.552.326.482.892-.156,1.26l-6.84,3.951A2.393,2.393,0,0,1,454.952,389.594Z" transform="translate(-350.83 -345.756)"/><path class="k" d="M470.3,398.46l-6.911-3.994c-.552-.312-.482-.878.156-1.246l6.84-3.951a2.394,2.394,0,0,1,2.167-.085l6.911,3.98c.552.326.482.878-.156,1.246l-6.84,3.951A2.45,2.45,0,0,1,470.3,398.46Z" transform="translate(-355.514 -348.462)"/><path class="k" d="M485.673,407.312l-6.854-3.98c-.552-.326-.482-.878.156-1.246l6.854-3.951a2.422,2.422,0,0,1,2.153-.1l6.911,3.994c.552.326.482.878-.156,1.246l-6.84,3.951a2.393,2.393,0,0,1-2.223.085Z" transform="translate(-360.222 -351.167)"/><path class="k" d="M501,416.175l-6.911-3.979c-.552-.326-.482-.878.156-1.26L501.095,407a2.365,2.365,0,0,1,2.153-.1l6.911,3.994c.552.312.482.878-.156,1.246l-6.84,3.951a2.393,2.393,0,0,1-2.167.085Z" transform="translate(-364.881 -353.87)"/><path class="k" d="M516.331,425.038l-6.939-3.994c-.552-.312-.481-.878.156-1.246l6.854-3.951a2.365,2.365,0,0,1,2.153-.085l6.911,3.98c.552.326.482.892-.156,1.26l-6.84,3.951A2.393,2.393,0,0,1,516.331,425.038Z" transform="translate(-369.553 -356.573)"/><path class="k" d="M531.691,433.9l-6.911-3.994c-.552-.312-.482-.878.156-1.246l6.854-3.951a2.365,2.365,0,0,1,2.153-.085l6.911,3.979c.552.326.481.878-.156,1.246l-6.784,3.951A2.45,2.45,0,0,1,531.691,433.9Z" transform="translate(-374.249 -359.279)"/><path class="k" d="M547.122,442.756l-6.9-3.98c-.566-.326-.5-.878.142-1.246l6.854-3.951a2.422,2.422,0,0,1,2.153-.1l6.911,3.994c.552.326.482.878-.156,1.246l-6.84,3.951A2.393,2.393,0,0,1,547.122,442.756Z" transform="translate(-378.959 -361.984)"/><path class="k" d="M562.389,451.62l-6.9-3.979c-.566-.326-.5-.878.156-1.246l6.84-3.951a2.365,2.365,0,0,1,2.153-.1l6.911,3.994c.552.312.482.878-.156,1.246l-6.868,3.951A2.394,2.394,0,0,1,562.389,451.62Z" transform="translate(-383.618 -364.687)"/><path class="k" d="M345.96,378.422l-20.337-11.74c-.552-.326-.5-.878.156-1.246l6.84-3.951a2.394,2.394,0,0,1,2.167-.1l20.337,11.74c.552.326.481.878-.156,1.26l-6.84,3.951A2.45,2.45,0,0,1,345.96,378.422Z" transform="translate(-313.469 -339.98)"/><path class="k" d="M534.518,487.286l-20.337-11.74c-.552-.326-.481-.878.156-1.246l6.84-3.951a2.45,2.45,0,0,1,2.167-.1L543.681,482c.552.312.482.878-.156,1.246l-6.84,3.951a2.393,2.393,0,0,1-2.167.085Z" transform="translate(-371.014 -373.206)"/><path class="k" d="M479.03,474.481l-6.9-3.994c-.552-.312-.482-.878.156-1.246l8.143-4.7a2.45,2.45,0,0,1,2.167-.1l6.911,3.994c.552.312.482.878-.156,1.246l-8.157,4.7a2.45,2.45,0,0,1-2.167.1Z" transform="translate(-358.182 -371.433)"/><path class="k" d="M365.758,409.09l-11.046-6.373c-.552-.312-.482-.878.156-1.246l8.157-4.7a2.422,2.422,0,0,1,2.153-.1l11.046,6.387c.552.312.482.878-.156,1.246l-8.143,4.7a2.393,2.393,0,0,1-2.167.085Z" transform="translate(-322.347 -350.75)"/><path class="k" d="M462.43,464.911l-11.046-6.373c-.552-.326-.482-.892.156-1.26l8.157-4.7a2.365,2.365,0,0,1,2.153-.085l11.046,6.373c.552.326.481.878-.156,1.246l-8.143,4.7a2.408,2.408,0,0,1-2.167.1Z" transform="translate(-351.85 -367.782)"/><path class="k" d="M387.907,421.884l-11-6.387c-.567-.312-.5-.878.156-1.246l8.143-4.7a2.393,2.393,0,0,1,2.167-.085l11.046,6.373c.552.312.482.878-.156,1.246l-8.157,4.7A2.45,2.45,0,0,1,387.907,421.884Z" transform="translate(-329.116 -354.651)"/><path class="k" d="M387.579,409.683,435.6,437.4a.651.651,0,0,1,0,1.246l-8.313,4.8a2.436,2.436,0,0,1-2.167,0l-48.052-27.772Z" transform="translate(-329.285 -354.784)"/><path class="k" d="M522.692,494.98l7.69,4.447c.453.255.4.708-.127,1.02l-3.328,1.926a2.011,2.011,0,0,1-1.77,0l-7.7-4.4c-.453-.255-.4-.722.128-1.02l3.342-1.926A1.955,1.955,0,0,1,522.692,494.98Z" transform="translate(-372.033 -380.757)"/><path class="k" d="M507.2,486.051l7.69,4.433c.453.269.4.722-.127,1.02l-3.385,1.926a1.968,1.968,0,0,1-1.77.085l-7.69-4.447c-.453-.269-.4-.722.128-1.02l3.342-1.926A1.912,1.912,0,0,1,507.2,486.051Z" transform="translate(-367.293 -378.031)"/><path class="k" d="M491.874,477.192l7.69,4.433c.453.269.4.722-.127,1.034l-3.342,1.926a2.011,2.011,0,0,1-1.77.071l-7.69-4.447c-.453-.255-.4-.722.127-1.02l3.342-1.926A1.954,1.954,0,0,1,491.874,477.192Z" transform="translate(-362.628 -375.333)"/><path class="k" d="M515.7,481.149l7.69,4.447c.453.269.4.722-.127,1.02l-3.342,1.926a1.912,1.912,0,0,1-1.77.071l-7.69-4.433c-.453-.269-.4-.722.127-1.02l3.328-1.926A2,2,0,0,1,515.7,481.149Z" transform="translate(-369.899 -376.543)"/></g><g class="j" transform="translate(214.206 229.757)"><path class="k" d="M315.579,380.112l-6.911-3.98c-.552-.326-.482-.878.156-1.246l8.157-4.716a2.365,2.365,0,0,1,2.153-.085l6.911,3.994c.552.312.482.878-.156,1.246l-8.157,4.7a2.365,2.365,0,0,1-2.153.085Z" transform="translate(-308.296 -342.634)"/><path class="k" d="M330.927,388.979,324.016,385c-.552-.326-.482-.878.156-1.26l8.157-4.7a2.365,2.365,0,0,1,2.153-.085l6.911,3.979c.552.326.481.878-.156,1.26l-8.157,4.716a2.365,2.365,0,0,1-2.153.071Z" transform="translate(-312.979 -345.339)"/><path class="k" d="M346.274,397.845l-6.911-3.994c-.552-.312-.482-.878.156-1.246l8.157-4.7a2.365,2.365,0,0,1,2.153-.085l6.911,3.979c.552.326.482.878-.156,1.246l-8.129,4.716A2.365,2.365,0,0,1,346.274,397.845Z" transform="translate(-317.663 -348.045)"/><path class="k" d="M367.494,390.864l-6.9-3.98c-.566-.312-.5-.878.156-1.246l6.84-3.951a2.365,2.365,0,0,1,2.153-.085l6.911,3.98c.552.326.481.892-.156,1.26l-6.84,3.951A2.436,2.436,0,0,1,367.494,390.864Z" transform="translate(-324.14 -346.148)"/><path class="k" d="M382.842,399.724l-6.9-3.994c-.566-.312-.5-.878.156-1.246l6.84-3.951a2.365,2.365,0,0,1,2.153-.085l6.911,3.98c.552.326.482.878-.156,1.246l-6.84,3.951A2.45,2.45,0,0,1,382.842,399.724Z" transform="translate(-328.824 -348.848)"/><path class="k" d="M398.19,408.563l-6.9-3.979c-.566-.326-.5-.878.156-1.246l6.84-3.98a2.422,2.422,0,0,1,2.153-.1l6.911,3.994c.552.326.482.878-.156,1.246l-6.84,3.951a2.393,2.393,0,0,1-2.167.113Z" transform="translate(-333.508 -351.54)"/><path class="k" d="M413.537,417.414l-6.9-4.036c-.566-.326-.5-.878.156-1.26l6.84-3.937a2.365,2.365,0,0,1,2.153-.1l6.911,3.994c.552.312.481.878-.156,1.246l-6.826,4.008A2.394,2.394,0,0,1,413.537,417.414Z" transform="translate(-338.192 -354.231)"/><path class="k" d="M428.906,426.3l-6.9-3.994c-.566-.312-.5-.878.156-1.246l6.84-3.951a2.393,2.393,0,0,1,2.167-.085l6.9,3.98c.552.326.482.892-.156,1.26l-6.84,3.951A2.394,2.394,0,0,1,428.906,426.3Z" transform="translate(-342.882 -356.959)"/><path class="k" d="M444.235,435.168l-6.9-3.994c-.552-.312-.5-.878.156-1.246l6.84-3.951a2.393,2.393,0,0,1,2.167-.085l6.9,3.979c.552.326.482.878-.156,1.246l-6.84,3.951a2.45,2.45,0,0,1-2.167.1Z" transform="translate(-347.562 -359.665)"/><path class="k" d="M459.583,444.02l-6.9-3.979c-.552-.326-.5-.878.156-1.246l6.84-3.951a2.45,2.45,0,0,1,2.167-.1l6.9,3.994c.552.326.482.878-.156,1.246l-6.84,3.951A2.393,2.393,0,0,1,459.583,444.02Z" transform="translate(-352.246 -362.37)"/><path class="k" d="M474.931,452.883l-6.9-3.98c-.552-.326-.5-.878.156-1.26l6.84-3.937a2.393,2.393,0,0,1,2.167-.1l6.9,3.994c.552.312.482.878-.156,1.246L477.1,452.8a2.394,2.394,0,0,1-2.167.085Z" transform="translate(-356.93 -365.073)"/><path class="k" d="M490.281,461.747l-6.9-3.994c-.552-.312-.482-.878.156-1.246l6.84-3.951a2.393,2.393,0,0,1,2.167-.085l6.9,3.98c.552.326.482.892-.156,1.26l-6.84,3.951A2.393,2.393,0,0,1,490.281,461.747Z" transform="translate(-361.616 -367.776)"/><path class="k" d="M505.629,470.613l-6.9-3.994c-.552-.312-.482-.878.156-1.246l6.84-3.951a2.393,2.393,0,0,1,2.167-.085l6.9,3.979c.552.326.481.878-.156,1.246l-6.84,3.951a2.393,2.393,0,0,1-2.167.1Z" transform="translate(-366.299 -370.482)"/><path class="k" d="M390.178,386.659l-6.911-3.979c-.552-.326-.481-.892.156-1.26l6.84-3.951a2.393,2.393,0,0,1,2.167-.085l6.911,3.994c.552.312.482.878-.156,1.246l-6.854,3.951A2.365,2.365,0,0,1,390.178,386.659Z" transform="translate(-331.062 -344.86)"/><path class="k" d="M374.53,377.67l-6.9-3.994c-.552-.312-.481-.878.156-1.246l6.84-3.951a2.393,2.393,0,0,1,2.167-.085l6.9,3.98c.552.326.5.878-.156,1.26l-6.84,3.937a2.393,2.393,0,0,1-2.167.1Z" transform="translate(-326.291 -342.117)"/><path class="k" d="M355.434,366.639l-14.87-8.582c-.552-.326-.5-.892.156-1.26l6.84-3.951a2.393,2.393,0,0,1,2.167-.085l14.87,8.582c.552.326.482.878-.156,1.26l-6.84,3.951a2.45,2.45,0,0,1-2.167.085Z" transform="translate(-318.028 -337.346)"/><path class="k" d="M367.529,356.389l-12.066-6.968c-.552-.312-.5-.878.156-1.246l6.84-3.951a2.393,2.393,0,0,1,2.167-.085l12.066,6.968c.552.312.481.878-.156,1.246L369.7,356.3A2.393,2.393,0,0,1,367.529,356.389Z" transform="translate(-322.575 -334.715)"/><path class="k" d="M405.464,395.525l-6.911-3.994c-.552-.312-.482-.878.156-1.246l6.84-3.951a2.393,2.393,0,0,1,2.167-.085l6.911,3.979c.552.326.482.878-.156,1.26l-6.883,3.895a2.365,2.365,0,0,1-2.124.142Z" transform="translate(-335.727 -347.566)"/><path class="k" d="M420.751,404.391,413.84,400.4c-.552-.326-.482-.878.156-1.246l6.84-3.951a2.393,2.393,0,0,1,2.167-.085l6.911,3.98c.552.326.482.878-.156,1.246l-6.854,3.951A2.422,2.422,0,0,1,420.751,404.391Z" transform="translate(-340.392 -350.272)"/><path class="k" d="M436.16,413.255l-6.911-3.951c-.552-.326-.481-.878.156-1.246l6.84-3.951a2.45,2.45,0,0,1,2.167-.1L445.323,408c.552.312.481.878-.156,1.246l-6.84,3.951A2.393,2.393,0,0,1,436.16,413.255Z" transform="translate(-345.095 -352.99)"/><path class="k" d="M451.508,422.1l-6.911-3.98c-.552-.326-.481-.892.156-1.26l6.84-3.951a2.393,2.393,0,0,1,2.167-.085l6.911,3.994c.552.312.482.878-.156,1.246l-6.84,3.951A2.394,2.394,0,0,1,451.508,422.1Z" transform="translate(-349.778 -355.677)"/><path class="k" d="M466.856,430.97l-6.911-3.994c-.552-.312-.481-.878.156-1.246l6.84-3.951a2.393,2.393,0,0,1,2.167-.085l6.911,3.979c.552.326.481.878-.156,1.26l-6.84,3.951a2.45,2.45,0,0,1-2.167.085Z" transform="translate(-354.462 -358.383)"/><path class="k" d="M482.2,439.823l-6.911-4.022c-.552-.326-.481-.878.156-1.246l6.84-3.951a2.394,2.394,0,0,1,2.167-.085l6.911,3.98c.552.326.482.878-.156,1.246l-6.84,3.951a2.45,2.45,0,0,1-2.167.128Z" transform="translate(-359.146 -361.077)"/><path class="k" d="M497.551,448.687l-6.911-3.98c-.552-.326-.482-.878.156-1.246l6.84-3.951a2.45,2.45,0,0,1,2.167-.1l6.911,3.994c.552.326.482.878-.156,1.246l-6.84,3.951a2.393,2.393,0,0,1-2.167.085Z" transform="translate(-363.83 -363.794)"/><path class="k" d="M512.9,457.551l-6.911-3.98c-.552-.326-.481-.878.156-1.26l6.84-3.951a2.45,2.45,0,0,1,2.167-.085l6.911,3.994c.552.312.482.878-.156,1.246l-6.84,3.951A2.393,2.393,0,0,1,512.9,457.551Z" transform="translate(-368.514 -366.497)"/><path class="k" d="M528.247,466.414l-6.911-3.994c-.552-.312-.482-.878.156-1.246l6.84-3.951a2.393,2.393,0,0,1,2.167-.085l6.911,3.98c.552.326.482.892-.156,1.26l-6.84,3.951A2.45,2.45,0,0,1,528.247,466.414Z" transform="translate(-373.198 -369.2)"/><path class="k" d="M551.954,480.1l-15.068-8.7c-.552-.326-.5-.892.156-1.26l6.84-3.951a2.393,2.393,0,0,1,2.167-.085l15.068,8.7c.552.326.482.878-.156,1.26L554.106,480a2.365,2.365,0,0,1-2.153.1Z" transform="translate(-377.942 -371.937)"/><path class="k" d="M582.854,463.437,570.108,456.1c-.552-.326-.5-.878.156-1.246l6.84-3.951a2.45,2.45,0,0,1,2.167-.1l12.746,7.35c.552.326.482.878-.156,1.246l-6.854,3.951a2.365,2.365,0,0,1-2.153.085Z" transform="translate(-388.081 -367.271)"/><path class="k" d="M432.334,393.792l-6.9-3.994c-.552-.312-.482-.878.156-1.246l6.84-3.951a2.393,2.393,0,0,1,2.167-.085l6.9,3.98c.552.326.5.878-.156,1.246l-6.84,3.951a2.394,2.394,0,0,1-2.167.1Z" transform="translate(-343.931 -347.037)"/><path class="k" d="M416.656,384.718l-6.954-3.951c-.552-.326-.482-.878.156-1.26l6.84-3.937a2.407,2.407,0,0,1,2.167-.1l6.911,3.994c.552.312.482.878-.156,1.246l-6.854,3.951A2.365,2.365,0,0,1,416.656,384.718Z" transform="translate(-339.129 -344.279)"/><path class="k" d="M400.878,375.632l-6.911-3.994c-.552-.326-.481-.878.156-1.246l6.84-3.951a2.393,2.393,0,0,1,2.167-.085l6.911,3.979c.552.326.481.878-.156,1.246l-6.84,3.951a2.45,2.45,0,0,1-2.167.1Z" transform="translate(-334.327 -341.495)"/><path class="k" d="M385.145,366.541l-6.9-3.979c-.566-.326-.5-.892.156-1.26l6.84-3.951a2.365,2.365,0,0,1,2.153-.085l6.911,3.994c.552.312.481.878-.156,1.246l-6.84,3.951a2.393,2.393,0,0,1-2.167.085Z" transform="translate(-329.527 -338.721)"/><path class="k" d="M447.682,402.659l-6.9-3.994c-.552-.326-.481-.878.156-1.246l6.84-3.951a2.393,2.393,0,0,1,2.167-.085l6.9,3.98c.552.326.5.878-.156,1.246l-6.84,3.951a2.45,2.45,0,0,1-2.167.1Z" transform="translate(-348.615 -349.743)"/><path class="k" d="M463.03,411.51l-6.9-3.979c-.552-.326-.482-.878.156-1.246l6.84-3.951a2.45,2.45,0,0,1,2.167-.1l6.9,3.994c.552.312.5.878-.156,1.246l-6.84,3.951A2.394,2.394,0,0,1,463.03,411.51Z" transform="translate(-353.299 -352.448)"/><path class="k" d="M478.392,420.371l-6.911-3.98c-.552-.326-.481-.892.156-1.26l6.84-3.951a2.393,2.393,0,0,1,2.167-.085l6.9,3.994c.566.312.5.878-.156,1.246l-6.84,3.951A2.365,2.365,0,0,1,478.392,420.371Z" transform="translate(-357.983 -355.149)"/><path class="k" d="M493.74,429.237l-6.911-3.994c-.552-.312-.482-.878.156-1.246l6.84-3.951a2.393,2.393,0,0,1,2.167-.085l6.9,3.98c.566.326.5.878-.156,1.26l-6.84,3.937a2.365,2.365,0,0,1-2.153.1Z" transform="translate(-362.667 -357.854)"/><path class="k" d="M509.088,438.124l-6.911-3.994c-.552-.326-.482-.878.156-1.246l6.84-3.951a2.393,2.393,0,0,1,2.167-.085l6.9,3.98c.566.326.5.878-.156,1.246l-6.84,3.951A2.422,2.422,0,0,1,509.088,438.124Z" transform="translate(-367.351 -360.566)"/><path class="k" d="M524.442,446.955l-6.9-3.979c-.552-.326-.482-.878.156-1.246l6.84-3.951a2.45,2.45,0,0,1,2.167-.1l6.9,3.994c.566.312.5.878-.156,1.246l-6.84,3.951A2.366,2.366,0,0,1,524.442,446.955Z" transform="translate(-372.041 -363.266)"/><path class="k" d="M539.783,455.815l-6.911-3.979c-.552-.326-.482-.892.156-1.26l6.84-3.951a2.393,2.393,0,0,1,2.167-.085l6.9,3.994c.566.312.5.878-.142,1.246l-6.854,3.951a2.365,2.365,0,0,1-2.153.085Z" transform="translate(-376.718 -365.966)"/><path class="k" d="M555.131,464.621l-6.911-3.994c-.552-.312-.482-.878.156-1.246l6.84-3.951a2.394,2.394,0,0,1,2.167-.085l6.911,3.98c.552.326.482.878-.156,1.26l-6.854,4.036a2.407,2.407,0,0,1-2.153,0Z" transform="translate(-381.402 -368.653)"/><path class="k" d="M570.479,473.548l-6.911-3.994c-.552-.326-.482-.878.156-1.246l6.84-3.951a2.393,2.393,0,0,1,2.167-.085l6.911,3.98c.552.326.481.878-.156,1.246l-6.826,3.951A2.422,2.422,0,0,1,570.479,473.548Z" transform="translate(-386.086 -371.377)"/><path class="k" d="M424.257,371.867l-6.911-3.979c-.552-.326-.482-.878.156-1.246l6.84-3.951a2.45,2.45,0,0,1,2.167-.1l6.911,3.994c.552.326.481.878-.156,1.246l-6.84,3.951a2.393,2.393,0,0,1-2.167.085Z" transform="translate(-341.462 -340.35)"/><path class="k" d="M408.991,363.056l-6.911-3.994c-.552-.312-.482-.878.156-1.246l6.84-3.951a2.393,2.393,0,0,1,2.167-.085l6.9,3.98c.566.326.5.878-.142,1.26l-6.854,3.937a2.365,2.365,0,0,1-2.153.1Z" transform="translate(-336.803 -337.657)"/><path class="k" d="M393.708,354.215l-6.9-4.022c-.552-.326-.5-.878.156-1.26l6.84-3.937a2.393,2.393,0,0,1,2.167-.1l6.9,3.994c.552.312.482.878-.156,1.246l-6.84,3.951a2.394,2.394,0,0,1-2.167.127Z" transform="translate(-332.142 -334.948)"/><path class="k" d="M378.438,345.425l-6.911-3.994c-.552-.326-.482-.878.156-1.246l6.854-3.951a2.365,2.365,0,0,1,2.153-.085l6.911,3.979c.552.326.482.878-.156,1.246l-6.84,3.951a2.45,2.45,0,0,1-2.167.1Z" transform="translate(-327.479 -332.277)"/><path class="k" d="M394.254,337.519l-6.911-3.994c-.552-.312-.481-.878.156-1.246l2.266-1.3a2.365,2.365,0,0,1,2.153-.085l6.911,3.98c.552.326.482.878-.156,1.246l-2.266,1.3a2.365,2.365,0,0,1-2.153.1Z" transform="translate(-332.306 -330.672)"/><path class="k" d="M414.072,349.014l-6.9-3.98c-.552-.326-.481-.878.156-1.246l2.252-1.317a2.393,2.393,0,0,1,2.167-.085l6.911,3.994c.552.312.481.878-.156,1.246l-2.266,1.3a2.393,2.393,0,0,1-2.167.085Z" transform="translate(-338.358 -334.18)"/><path class="k" d="M429.291,357.758l-6.911-3.979c-.552-.326-.482-.892.156-1.26l2.266-1.3a2.365,2.365,0,0,1,2.153-.085l6.911,3.979c.552.326.482.878-.156,1.26l-2.266,1.3A2.365,2.365,0,0,1,429.291,357.758Z" transform="translate(-342.998 -336.849)"/><path class="k" d="M444.5,366.583l-6.911-3.994c-.552-.312-.482-.878.156-1.246l2.266-1.3a2.365,2.365,0,0,1,2.153-.085l6.911,3.98c.552.326.482.878-.156,1.246l-2.266,1.317A2.365,2.365,0,0,1,444.5,366.583Z" transform="translate(-347.639 -339.542)"/><path class="k" d="M459.7,375.368l-6.911-3.994c-.552-.312-.482-.878.156-1.246l2.266-1.3a2.45,2.45,0,0,1,2.167-.1l6.9,3.994c.552.326.5.878-.156,1.246l-2.252,1.3A2.45,2.45,0,0,1,459.7,375.368Z" transform="translate(-352.279 -342.222)"/><path class="k" d="M544.614,424.387l-6.911-3.994c-.552-.312-.482-.878.156-1.246l2.266-1.3a2.422,2.422,0,0,1,2.153-.1l6.911,3.994c.552.326.482.878-.156,1.246l-2.266,1.3A2.365,2.365,0,0,1,544.614,424.387Z" transform="translate(-378.193 -357.182)"/><path class="k" d="M559.819,433.172l-6.911-3.994c-.552-.326-.481-.878.156-1.246l2.266-1.3a2.45,2.45,0,0,1,2.167-.1l6.9,3.994c.552.312.482.878-.156,1.246l-2.266,1.3A2.421,2.421,0,0,1,559.819,433.172Z" transform="translate(-382.833 -359.863)"/><path class="k" d="M575.024,441.937l-6.911-3.98c-.552-.326-.482-.878.156-1.246l2.266-1.317a2.393,2.393,0,0,1,2.167-.085l6.9,3.994c.552.312.5.878-.156,1.246l-2.252,1.3a2.393,2.393,0,0,1-2.167.085Z" transform="translate(-387.473 -362.538)"/><path class="k" d="M590.229,450.727l-6.911-3.979c-.552-.326-.482-.878.156-1.26l2.294-1.289a2.393,2.393,0,0,1,2.167-.085l6.9,3.98c.566.326.5.878-.156,1.26l-2.252,1.3a2.393,2.393,0,0,1-2.2.071Z" transform="translate(-392.114 -365.225)"/><path class="k" d="M439.6,380.712l-6.911-4.022c-.552-.326-.482-.878.156-1.26l6.84-3.937a2.408,2.408,0,0,1,2.167-.1l6.911,3.994c.552.312.481.878-.156,1.246l-6.84,3.951A2.393,2.393,0,0,1,439.6,380.712Z" transform="translate(-346.146 -343.035)"/><path class="k" d="M454.952,389.594l-6.911-3.994c-.552-.312-.482-.878.156-1.246l6.84-3.951a2.394,2.394,0,0,1,2.167-.085l6.911,3.98c.552.326.482.892-.156,1.26l-6.84,3.951A2.393,2.393,0,0,1,454.952,389.594Z" transform="translate(-350.83 -345.756)"/><path class="k" d="M470.3,398.46l-6.911-3.994c-.552-.312-.482-.878.156-1.246l6.84-3.951a2.394,2.394,0,0,1,2.167-.085l6.911,3.98c.552.326.482.878-.156,1.246l-6.84,3.951A2.45,2.45,0,0,1,470.3,398.46Z" transform="translate(-355.514 -348.462)"/><path class="k" d="M485.673,407.312l-6.854-3.98c-.552-.326-.482-.878.156-1.246l6.854-3.951a2.422,2.422,0,0,1,2.153-.1l6.911,3.994c.552.326.482.878-.156,1.246l-6.84,3.951a2.393,2.393,0,0,1-2.223.085Z" transform="translate(-360.222 -351.167)"/><path class="k" d="M501,416.175l-6.911-3.979c-.552-.326-.482-.878.156-1.26L501.095,407a2.365,2.365,0,0,1,2.153-.1l6.911,3.994c.552.312.482.878-.156,1.246l-6.84,3.951a2.393,2.393,0,0,1-2.167.085Z" transform="translate(-364.881 -353.87)"/><path class="k" d="M516.331,425.038l-6.939-3.994c-.552-.312-.481-.878.156-1.246l6.854-3.951a2.365,2.365,0,0,1,2.153-.085l6.911,3.98c.552.326.482.892-.156,1.26l-6.84,3.951A2.393,2.393,0,0,1,516.331,425.038Z" transform="translate(-369.553 -356.573)"/><path class="k" d="M531.691,433.9l-6.911-3.994c-.552-.312-.482-.878.156-1.246l6.854-3.951a2.365,2.365,0,0,1,2.153-.085l6.911,3.979c.552.326.481.878-.156,1.246l-6.784,3.951A2.45,2.45,0,0,1,531.691,433.9Z" transform="translate(-374.249 -359.279)"/><path class="k" d="M547.122,442.756l-6.9-3.98c-.566-.326-.5-.878.142-1.246l6.854-3.951a2.422,2.422,0,0,1,2.153-.1l6.911,3.994c.552.326.482.878-.156,1.246l-6.84,3.951A2.393,2.393,0,0,1,547.122,442.756Z" transform="translate(-378.959 -361.984)"/><path class="k" d="M562.389,451.62l-6.9-3.979c-.566-.326-.5-.878.156-1.246l6.84-3.951a2.365,2.365,0,0,1,2.153-.1l6.911,3.994c.552.312.482.878-.156,1.246l-6.868,3.951A2.394,2.394,0,0,1,562.389,451.62Z" transform="translate(-383.618 -364.687)"/><path class="k" d="M345.96,378.422l-20.337-11.74c-.552-.326-.5-.878.156-1.246l6.84-3.951a2.394,2.394,0,0,1,2.167-.1l20.337,11.74c.552.326.481.878-.156,1.26l-6.84,3.951A2.45,2.45,0,0,1,345.96,378.422Z" transform="translate(-313.469 -339.98)"/><path class="k" d="M534.518,487.286l-20.337-11.74c-.552-.326-.481-.878.156-1.246l6.84-3.951a2.45,2.45,0,0,1,2.167-.1L543.681,482c.552.312.482.878-.156,1.246l-6.84,3.951a2.393,2.393,0,0,1-2.167.085Z" transform="translate(-371.014 -373.206)"/><path class="k" d="M479.03,474.481l-6.9-3.994c-.552-.312-.482-.878.156-1.246l8.143-4.7a2.45,2.45,0,0,1,2.167-.1l6.911,3.994c.552.312.482.878-.156,1.246l-8.157,4.7a2.45,2.45,0,0,1-2.167.1Z" transform="translate(-358.182 -371.433)"/><path class="k" d="M365.758,409.09l-11.046-6.373c-.552-.312-.482-.878.156-1.246l8.157-4.7a2.422,2.422,0,0,1,2.153-.1l11.046,6.387c.552.312.482.878-.156,1.246l-8.143,4.7a2.393,2.393,0,0,1-2.167.085Z" transform="translate(-322.347 -350.75)"/><path class="k" d="M462.43,464.911l-11.046-6.373c-.552-.326-.482-.892.156-1.26l8.157-4.7a2.365,2.365,0,0,1,2.153-.085l11.046,6.373c.552.326.481.878-.156,1.246l-8.143,4.7a2.408,2.408,0,0,1-2.167.1Z" transform="translate(-351.85 -367.782)"/><path class="k" d="M387.907,421.884l-11-6.387c-.567-.312-.5-.878.156-1.246l8.143-4.7a2.393,2.393,0,0,1,2.167-.085l11.046,6.373c.552.312.482.878-.156,1.246l-8.157,4.7A2.45,2.45,0,0,1,387.907,421.884Z" transform="translate(-329.116 -354.651)"/><path class="k" d="M387.579,409.683,435.6,437.4a.651.651,0,0,1,0,1.246l-8.313,4.8a2.436,2.436,0,0,1-2.167,0l-48.052-27.772Z" transform="translate(-329.285 -354.784)"/><path class="k" d="M522.692,494.98l7.69,4.447c.453.255.4.708-.127,1.02l-3.328,1.926a2.011,2.011,0,0,1-1.77,0l-7.7-4.4c-.453-.255-.4-.722.128-1.02l3.342-1.926A1.955,1.955,0,0,1,522.692,494.98Z" transform="translate(-372.033 -380.757)"/><path class="k" d="M507.2,486.051l7.69,4.433c.453.269.4.722-.127,1.02l-3.385,1.926a1.968,1.968,0,0,1-1.77.085l-7.69-4.447c-.453-.269-.4-.722.128-1.02l3.342-1.926A1.912,1.912,0,0,1,507.2,486.051Z" transform="translate(-367.293 -378.031)"/><path class="k" d="M491.874,477.192l7.69,4.433c.453.269.4.722-.127,1.034l-3.342,1.926a2.011,2.011,0,0,1-1.77.071l-7.69-4.447c-.453-.255-.4-.722.127-1.02l3.342-1.926A1.954,1.954,0,0,1,491.874,477.192Z" transform="translate(-362.628 -375.333)"/><path class="k" d="M515.7,481.149l7.69,4.447c.453.269.4.722-.127,1.02l-3.342,1.926a1.912,1.912,0,0,1-1.77.071l-7.69-4.433c-.453-.269-.4-.722.127-1.02l3.328-1.926A2,2,0,0,1,515.7,481.149Z" transform="translate(-369.899 -376.543)"/></g><path class="l" d="M589.255,339.69,385.465,222.061a9.05,9.05,0,0,1-3.739-10.069L427.866,62.4c1.133-3.71,4.659-5.212,7.86-3.371L639.46,176.657a9.007,9.007,0,0,1,3.753,10.069L597.13,336.319C595.982,340.03,592.456,341.545,589.255,339.69Z" transform="translate(-116.392 -17.774)"/><path class="m" d="M589.269,336.821,391.653,222.661a8.625,8.625,0,0,1-3.583-9.63L432.128,70c1.09-3.555,4.461-5,7.52-3.229L637.264,180.954a8.6,8.6,0,0,1,3.569,9.63L596.789,333.62C595.713,337.146,592.342,338.591,589.269,336.821Z" transform="translate(-118.331 -20.145)"/><path class="n" d="M589.269,336.821,391.653,222.661a8.625,8.625,0,0,1-3.583-9.63L432.128,70c1.09-3.555,4.461-5,7.52-3.229L637.264,180.954a8.6,8.6,0,0,1,3.569,9.63L596.789,333.62C595.713,337.146,592.342,338.591,589.269,336.821Z" transform="translate(-118.331 -20.145)"/><path class="n" d="M589.269,336.821,391.653,222.661a8.625,8.625,0,0,1-3.583-9.63L432.128,70c1.09-3.555,4.461-5,7.52-3.229L637.264,180.954a8.6,8.6,0,0,1,3.569,9.63L596.789,333.62C595.713,337.146,592.342,338.591,589.269,336.821Z" transform="translate(-118.331 -20.145)"/><path class="o" d="M602.587,311.7,468.813,234.462a5.891,5.891,0,0,1-2.45-6.6l30.25-98.227a3.427,3.427,0,0,1,5.169-2.209l133.774,77.225a5.934,5.934,0,0,1,2.45,6.614l-30.25,98.227a3.441,3.441,0,0,1-5.169,2.209Z" transform="translate(-142.256 -38.729)"/><path class="p" d="M576.575,315.108,442.8,237.883a5.934,5.934,0,0,1-2.464-6.614L470.6,133.042a3.427,3.427,0,0,1,5.155-2.209L609.53,208.072a5.905,5.905,0,0,1,2.45,6.6L581.73,312.9a3.427,3.427,0,0,1-5.155,2.209Z" transform="translate(-134.316 -39.772)"/><g class="q" transform="translate(305.79 90.55)"><path class="k" d="M576.575,315.108,442.8,237.883a5.934,5.934,0,0,1-2.464-6.614L470.6,133.042a3.427,3.427,0,0,1,5.155-2.209L609.53,208.072a5.905,5.905,0,0,1,2.45,6.6L581.73,312.9a3.427,3.427,0,0,1-5.155,2.209Z" transform="translate(-440.105 -130.321)"/></g><path class="i" d="M623.541,208.068,489.767,130.829a3.314,3.314,0,0,0-3.753.127,3.654,3.654,0,0,1,1.926.5l133.774,77.239a5.92,5.92,0,0,1,2.45,6.6l-30.25,98.227A4.079,4.079,0,0,1,592.5,315.6a3.512,3.512,0,0,0,3.229-2.7l30.25-98.227A5.906,5.906,0,0,0,623.541,208.068Z" transform="translate(-148.326 -39.767)"/><path class="n" d="M367,486.664a10.055,10.055,0,0,1-4.957-1.161h0l-53.6-30.944a3.852,3.852,0,0,1-2.2-3.3,5.056,5.056,0,0,1,2.96-4.093l27.587-15.932a12.349,12.349,0,0,1,11.33-.439l53.6,30.944a3.88,3.88,0,0,1,2.2,3.3,5.084,5.084,0,0,1-2.946,4.107l-27.587,15.932A13.071,13.071,0,0,1,367,486.664ZM343.12,431.206a11.485,11.485,0,0,0-5.566,1.416L309.967,448.54c-1.416.807-2.181,1.813-2.181,2.762a2.478,2.478,0,0,0,1.416,1.968l53.617,30.9c2.422,1.416,6.869,1.2,9.715-.439L400.122,467.8c1.416-.793,2.181-1.8,2.181-2.832a2.45,2.45,0,0,0-1.416-1.954L347.3,432.07a8.61,8.61,0,0,0-4.178-.864Z" transform="translate(-93.463 -131.114)"/><path class="i" d="M534.246,201.659l-8.271-4.773a2.181,2.181,0,0,1-.921-2.379h0a1.218,1.218,0,0,1,1.855-.779l8.271,4.773a2.139,2.139,0,0,1,.921,2.379h0a1.218,1.218,0,0,1-1.855.779Z" transform="translate(-160.219 -59.063)"/><path class="i" d="M560.833,217.012l-12.193-7.081a2.167,2.167,0,0,1-.921-2.379h0a1.218,1.218,0,0,1,1.855-.779l12.208,7.081a2.152,2.152,0,0,1,.906,2.379h0a1.218,1.218,0,0,1-1.855.779Z" transform="translate(-167.135 -63.044)"/><path class="i" d="M510.236,254.653l-8.271-4.773a2.181,2.181,0,0,1-.921-2.379h0a1.232,1.232,0,0,1,1.869-.779l8.271,4.773a2.181,2.181,0,0,1,.92,2.379h0a1.232,1.232,0,0,1-1.869.779Z" transform="translate(-152.892 -75.236)"/><path class="i" d="M533.787,268.233l-12.193-7.081a2.181,2.181,0,0,1-.921-2.379h0a1.232,1.232,0,0,1,1.869-.779l12.193,7.081a2.167,2.167,0,0,1,.921,2.379h0a1.232,1.232,0,0,1-1.87.779Z" transform="translate(-158.882 -78.675)"/><path class="i" d="M499.978,193.041l-5.127-2.917a2.167,2.167,0,0,1-.921-2.379h0a1.232,1.232,0,0,1,1.855-.779l5.169,2.988a2.167,2.167,0,0,1,.921,2.379h0a1.232,1.232,0,0,1-1.9.708Z" transform="translate(-150.72 -57.001)"/><path class="i" d="M517.66,214.369l-15.776-9.12a2.167,2.167,0,0,1-.921-2.379h0a1.218,1.218,0,0,1,1.855-.765l15.791,9.106a2.181,2.181,0,0,1,.921,2.379h0a1.232,1.232,0,0,1-1.869.779Z" transform="translate(-152.866 -61.618)"/><path class="i" d="M501.369,227.254l-5.155-2.988a2.124,2.124,0,0,1-.921-2.379h0a1.218,1.218,0,0,1,1.855-.765l5.169,2.974a2.167,2.167,0,0,1,.921,2.379h0a1.232,1.232,0,0,1-1.869.779Z" transform="translate(-151.133 -67.422)"/><path class="i" d="M535.829,291.714l-13.808-7.973a2.167,2.167,0,0,1-.921-2.379h0a1.232,1.232,0,0,1,1.869-.765l13.794,7.959a2.167,2.167,0,0,1,.92,2.379h0a1.232,1.232,0,0,1-1.855.779Z" transform="translate(-159.011 -85.573)"/><path class="i" d="M493.845,245.189l-3.314-1.912a2.181,2.181,0,0,1-.921-2.379h0a1.232,1.232,0,0,1,1.869-.779l3.314,1.912a2.181,2.181,0,0,1,.921,2.379h0a1.232,1.232,0,0,1-1.869.779Z" transform="translate(-149.402 -73.22)"/><path class="i" d="M488.965,264.664l-4.121-2.379a2.153,2.153,0,0,1-.921-2.365h0a1.218,1.218,0,0,1,1.855-.765l4.121,2.379a2.138,2.138,0,0,1,.921,2.379h0a1.218,1.218,0,0,1-1.855.751Z" transform="translate(-147.666 -79.029)"/><path class="i" d="M509.08,276.257,498.218,270a2.138,2.138,0,0,1-.906-2.379h0a1.218,1.218,0,0,1,1.855-.779l10.862,6.274a2.138,2.138,0,0,1,.906,2.379h0a1.218,1.218,0,0,1-1.855.765Z" transform="translate(-151.749 -81.375)"/><path class="i" d="M489.835,276.295l-7.8-4.5a2.181,2.181,0,0,1-.921-2.379h0a1.218,1.218,0,0,1,1.855-.779l7.817,4.5a2.181,2.181,0,0,1,.921,2.379h0a1.232,1.232,0,0,1-1.869.779Z" transform="translate(-146.808 -81.922)"/><path class="i" d="M556.729,303.857l-5.013-2.832a2.138,2.138,0,0,1-.921-2.379h0a1.218,1.218,0,0,1,1.855-.765l5.013,2.832a2.167,2.167,0,0,1,.92,2.379h0a1.232,1.232,0,0,1-1.855.765Z" transform="translate(-168.072 -90.847)"/><path class="i" d="M525.237,241.024l-13.794-7.959a2.181,2.181,0,0,1-.921-2.379h0a1.218,1.218,0,0,1,1.855-.779l13.808,7.973a2.167,2.167,0,0,1,.921,2.379h0a1.232,1.232,0,0,1-1.869.765Z" transform="translate(-155.784 -70.104)"/><path class="r" d="M523,228.641l-24.075-13.879a2.138,2.138,0,0,1-.921-2.379h0a1.218,1.218,0,0,1,1.855-.779L523.936,225.5a2.138,2.138,0,0,1,.921,2.379h0a1.218,1.218,0,0,1-1.855.765Z" transform="translate(-151.962 -64.518)"/><path class="r" d="M507.134,241.655l-13.808-7.973a2.138,2.138,0,0,1-.906-2.379h0a1.218,1.218,0,0,1,1.855-.765l13.794,7.959a2.181,2.181,0,0,1,.921,2.379h0a1.218,1.218,0,0,1-1.855.779Z" transform="translate(-150.257 -70.296)"/><path class="r" d="M544.156,252.067l-5.013-2.832a2.153,2.153,0,0,1-.92-2.365h0a1.232,1.232,0,0,1,1.869-.779l5.013,2.832a2.181,2.181,0,0,1,.921,2.379h0a1.232,1.232,0,0,1-1.869.765Z" transform="translate(-164.237 -75.043)"/><path class="r" d="M606.711,243.5l-29.74-17.136a2.167,2.167,0,0,1-.921-2.379h0a1.232,1.232,0,0,1,1.855-.779l29.74,17.15a2.167,2.167,0,0,1,.921,2.379h0a1.218,1.218,0,0,1-1.855.765Z" transform="translate(-175.781 -68.061)"/><path class="s" d="M504.281,262.354,487.7,252.781a2.167,2.167,0,0,1-.921-2.379h0a1.232,1.232,0,0,1,1.869-.765l16.584,9.573a2.167,2.167,0,0,1,.92,2.379h0a1.232,1.232,0,0,1-1.869.765Z" transform="translate(-148.536 -76.124)"/><path class="s" d="M509.879,187.54l-12.193-7.081a2.181,2.181,0,0,1-.921-2.379h0a1.218,1.218,0,0,1,1.855-.779l12.193,7.081a2.124,2.124,0,0,1,.92,2.379h0a1.218,1.218,0,0,1-1.855.779Z" transform="translate(-151.585 -54.049)"/><path class="r" d="M483.373,283.723l-14.162-8.157a2.167,2.167,0,0,1-.921-2.379h0a1.232,1.232,0,0,1,1.855-.779l14.162,8.157a2.139,2.139,0,0,1,.906,2.379h0a1.218,1.218,0,0,1-1.841.779Z" transform="translate(-142.895 -83.077)"/><path class="i" d="M622.026,227.9l-6.047-3.484a1.558,1.558,0,0,1-.666-1.742h0a.892.892,0,0,1,1.416-.566l6.033,3.484a1.586,1.586,0,0,1,.68,1.742h0a.892.892,0,0,1-1.416.566Z" transform="translate(-187.767 -67.728)"/><path class="i" d="M638.619,237.48,632.572,234a1.586,1.586,0,0,1-.666-1.742h0a.892.892,0,0,1,1.416-.566l6.047,3.5a1.572,1.572,0,0,1,.666,1.728h0a.892.892,0,0,1-1.416.566Z" transform="translate(-192.833 -70.652)"/><path class="i" d="M655.211,247.034l-6.047-3.54a1.6,1.6,0,0,1-.666-1.742h0a.892.892,0,0,1,1.416-.566l6.047,3.5a1.558,1.558,0,0,1,.666,1.728h0a.892.892,0,0,1-1.416.623Z" transform="translate(-197.897 -73.551)"/><path class="s" d="M665.953,253.268l-.184-.113a1.586,1.586,0,0,1-.68-1.742h0a.892.892,0,0,1,1.416-.566l.184.113a1.558,1.558,0,0,1,.666,1.742h0a.878.878,0,0,1-1.4.566Z" transform="translate(-202.96 -76.499)"/><path class="t" d="M193.414,328.823a21.994,21.994,0,0,1-11.061-2.96h0l-40.489-23.381a5.58,5.58,0,0,1,0-9.7L182.353,269.4a22.192,22.192,0,0,1,22.121,0l40.475,23.381a5.665,5.665,0,0,1,0,9.715L204.46,325.863a22.05,22.05,0,0,1-11.046,2.96Zm-9.743-5.24a19.572,19.572,0,0,0,19.5,0L243.66,300.2a2.96,2.96,0,0,0,0-5.141l-40.489-23.381a19.572,19.572,0,0,0-19.5,0l-40.5,23.381a2.974,2.974,0,0,0,0,5.141Z" transform="translate(-42.437 -81.314)"/><ellipse class="d" cx="27.814" cy="16.06" rx="27.814" ry="16.06" transform="translate(122.964 200.817)"/><path class="u" d="M241.546,147.4H162.324l7.364,85.779h0c0,4.758,3.158,9.517,9.446,13.156,12.59,7.265,33.011,7.265,45.6,0,6.3-3.64,9.446-8.4,9.446-13.156Z" transform="translate(-49.542 -44.985)"/><path class="n" d="M241.546,147.4H162.324l1.218,14.162a30.972,30.972,0,0,0,7.336,6.628c15.139,9.913,40.107,11.9,57.1,4.673L225.345,235.6a12.307,12.307,0,0,1-2.832,7.478c-2.563,3.016-7.506,6.571-16.994,8.582a44.653,44.653,0,0,0,19.175-5.325c6.3-3.64,9.446-8.4,9.446-13.156l5.906-68.8h0Z" transform="translate(-49.542 -44.985)"/><ellipse class="n" cx="39.611" cy="22.872" rx="39.611" ry="22.872" transform="translate(112.782 79.548)"/><ellipse class="n" cx="34.116" cy="19.699" rx="34.116" ry="19.699" transform="translate(118.277 74.648)"/><path class="v" d="M242.863,132.349h0a.355.355,0,0,1,0-.113l-.779-7.761v.1c-.34-5.821-4.348-11.57-12.038-16.017-16.074-9.276-42.16-9.276-58.234,0-7.888,4.56-11.9,10.494-12.052,16.456h0l-.793,6.812v.651h0c-.439,6.514,3.654,13.114,12.264,18.085,16.4,9.474,43,9.474,59.4,0C239.28,145.548,243.358,138.892,242.863,132.349Z" transform="translate(-48.508 -31.006)"/><ellipse class="w" cx="34.116" cy="19.699" rx="34.116" ry="19.699" transform="translate(118.277 74.648)"/><ellipse class="w" cx="34.116" cy="19.699" rx="34.116" ry="19.699" transform="translate(116.662 74.648)"/><path class="n" d="M184.243,116.149c13.326-7.69,34.938-7.69,48.25,0l.482.312a27.813,27.813,0,0,0-4.518-3.243c-13.326-7.69-34.938-7.69-48.264,0s-13.284,19.827-.467,27.545C171.157,133.129,172.659,122.833,184.243,116.149Z" transform="translate(-51.932 -32.792)"/><path class="x" d="M180.2,116.655c13.326-7.69,34.938-7.69,48.264,0,5.906,3.413,9.191,7.761,9.913,12.222.836-5.594-2.45-11.33-9.913-15.578-13.326-7.69-34.938-7.69-48.264,0-7.407,4.249-10.692,10.041-9.913,15.578C171.021,124.416,174.293,120.068,180.2,116.655Z" transform="translate(-51.937 -32.817)"/><path class="y" d="M230.553,108.7c-16.06-9.46-42.231-9.687-58.446-.51s-16.357,24.288-.3,33.748,42.231,9.687,58.446.51S246.613,118.155,230.553,108.7Zm-5.24,30.547a44.653,44.653,0,0,1-15.578,5.112l-.623-2.039a1.926,1.926,0,0,0-1.855-1.416h-12.25a1.94,1.94,0,0,0-1.869,1.416l-.623,2.039a44.483,44.483,0,0,1-15.578-5.112c-13.326-7.69-13.326-20.167,0-27.857s34.938-7.69,48.264,0,13.44,20.124.113,27.857Z" transform="translate(-48.788 -30.96)"/><path class="i" d="M228.5,111.118c-13.326-7.69-34.938-7.69-48.264,0-6.982,4.036-10.3,9.375-9.913,14.658.312-4.8,3.625-9.545,9.913-13.2,13.326-7.69,34.938-7.69,48.264,0,6.33,3.654,9.658,8.4,9.913,13.2C238.794,120.493,235.48,115.154,228.5,111.118Z" transform="translate(-51.974 -32.151)"/><path class="i" d="M230.256,151.053c-16.215,9.177-42.387,8.95-58.446-.51-7.647-4.5-11.613-10.282-11.939-16.1-.312,6.3,3.654,12.746,11.939,17.561,16.06,9.46,42.231,9.687,58.446.51,8.5-4.815,12.59-11.245,12.236-17.646C242.194,140.771,238.115,146.606,230.256,151.053Z" transform="translate(-48.788 -41.029)"/><rect class="z" width="9.177" height="1.983" rx="0.991" transform="translate(147.804 112.474)"/><path class="aa" d="M220.963,161.875H213.6a.921.921,0,0,0-.935.921v.142a.75.75,0,0,0,0,.241.906.906,0,0,1,.878-.68h7.322a.892.892,0,0,1,.864.68.75.75,0,0,0,0-.241V162.8a.921.921,0,0,0-.765-.921Z" transform="translate(-64.902 -49.401)"/><path class="r" d="M215.475,255.086a6.33,6.33,0,1,1-12.237-3.243c.908-3.384,4.094-4.333,7.465-3.441S216.325,251.716,215.475,255.086Z" transform="translate(-61.963 -75.711)"/><path class="r" d="M225.879,246.315a2.832,2.832,0,1,1-3.909-4.008c1.26-1.246,3.7-1.869,4.773-.765S227.154,245.012,225.879,246.315Z" transform="translate(-67.382 -73.539)"/><path class="r" d="M216.112,239.025a2.832,2.832,0,1,1-5.523-.991c.312-1.756,1.926-3.654,3.456-3.385S216.424,237.3,216.112,239.025Z" transform="translate(-64.229 -71.603)"/><path class="r" d="M204.434,238.587a2.832,2.832,0,1,1-5.183,2.138c-.68-1.643-.34-4.121,1.09-4.716S203.74,236.944,204.434,238.587Z" transform="translate(-60.709 -71.985)"/><path class="ab" d="M218.084,125.334s22.149-7.421,13.185-32.87-26.426-33.21-19.4-53.575c0,0-11.018,16.485-.722,38.79s12.562,19.728,12.448,30.406a19.232,19.232,0,0,1-10.381,17.249Z" transform="translate(-63.1 -11.868)"/><path class="ab" d="M225.876,30.562S223.568,15.337,237.843,0c0,0-12.618,28.211-8.5,42.132C229.346,42.132,226.089,33.281,225.876,30.562Z" transform="translate(-68.895)"/></g></g></g></svg>